<?xml version="1.0" encoding="UTF-8" standalone="no"?>
<svg
   xmlns:dc="http://purl.org/dc/elements/1.1/"
   xmlns:cc="http://creativecommons.org/ns#"
   xmlns:rdf="http://www.w3.org/1999/02/22-rdf-syntax-ns#"
   xmlns:svg="http://www.w3.org/2000/svg"
   xmlns="http://www.w3.org/2000/svg"
   xmlns:xlink="http://www.w3.org/1999/xlink"
   xmlns:sodipodi="http://sodipodi.sourceforge.net/DTD/sodipodi-0.dtd"
   xmlns:inkscape="http://www.inkscape.org/namespaces/inkscape"
   inkscape:export-ydpi="96"
   inkscape:export-xdpi="96"
   inkscape:export-filename="C:\Work\Web\BDayWish\cake.png"
   sodipodi:docname="cake.svg"
   inkscape:version="1.0 (4035a4fb49, 2020-05-01)"
   id="svg8"
   version="1.1"
   viewBox="0 0 33.866666 33.866668"
   height="128"
   width="128">
  <defs
     id="defs2">
    <linearGradient
       id="linearGradient1719"
       inkscape:collect="always">
      <stop
         id="stop1715"
         offset="0"
         style="stop-color:#ffffca;stop-opacity:1" />
      <stop
         id="stop1717"
         offset="1"
         style="stop-color:#ffb105;stop-opacity:1" />
    </linearGradient>
    <radialGradient
       gradientUnits="userSpaceOnUse"
       gradientTransform="matrix(1,0,0,1.4208872,0,-6.6705845)"
       r="3.0352473"
       fy="18.066589"
       fx="64"
       cy="18.066589"
       cx="64"
       id="radialGradient1833"
       xlink:href="#linearGradient1719"
       inkscape:collect="always" />
  </defs>
  <sodipodi:namedview
     inkscape:window-maximized="1"
     inkscape:window-y="-9"
     inkscape:window-x="-9"
     inkscape:window-height="1001"
     inkscape:window-width="1920"
     showguides="false"
     units="px"
     inkscape:pagecheckerboard="true"
     showgrid="true"
     inkscape:document-rotation="0"
     inkscape:current-layer="layer1"
     inkscape:document-units="mm"
     inkscape:cy="59.591409"
     inkscape:cx="65.069716"
     inkscape:zoom="6.1829055"
     inkscape:pageshadow="2"
     inkscape:pageopacity="0.0"
     borderopacity="1.0"
     bordercolor="#666666"
     pagecolor="#ffffff"
     id="base">
    <inkscape:grid
       snapvisiblegridlinesonly="true"
       spacingy="0.26458334"
       dotted="false"
       id="grid1402"
       type="xygrid" />
  </sodipodi:namedview>
  <metadata
     id="metadata5">
    <rdf:RDF>
      <cc:Work
         rdf:about="">
        <dc:format>image/svg+xml</dc:format>
        <dc:type
           rdf:resource="http://purl.org/dc/dcmitype/StillImage" />
        <dc:title></dc:title>
      </cc:Work>
    </rdf:RDF>
  </metadata>
  <g
     id="layer1"
     inkscape:groupmode="layer"
     inkscape:label="Layer 1">
    <path
       sodipodi:nodetypes="cc"
       id="path1406-8-3"
       d="m 2.3735329,26.192631 c 0,-5.281539 29.1135641,-5.281539 29.1135641,0"
       style="fill:none;stroke:#000000;stroke-width:0.320169px;stroke-linecap:butt;stroke-linejoin:miter;stroke-opacity:1" />
    <path
       sodipodi:nodetypes="cc"
       id="path1406"
       d="m 3.7041661,26.193751 c 0,3.96875 26.4583339,3.96875 26.4583339,0"
       style="fill:none;stroke:#000000;stroke-width:0.264583px;stroke-linecap:butt;stroke-linejoin:miter;stroke-opacity:1" />
    <path
       style="fill:none;stroke:#000000;stroke-width:0.264583px;stroke-linecap:butt;stroke-linejoin:miter;stroke-opacity:1"
       d="m 3.7041659,15.610417 c 0,3.96875 26.4583341,3.96875 26.4583341,0"
       id="path1406-0"
       sodipodi:nodetypes="cc" />
    <path
       sodipodi:nodetypes="cc"
       id="path1423"
       d="m 3.7041663,15.610417 c 0,-3.96875 26.4583327,-3.96875 26.4583327,0"
       style="fill:none;stroke:#000000;stroke-width:0.264583px;stroke-linecap:butt;stroke-linejoin:miter;stroke-opacity:1" />
    <path
       id="path1425"
       d="M 30.1625,15.610417 V 26.19375"
       style="fill:none;stroke:#000000;stroke-width:0.264583px;stroke-linecap:butt;stroke-linejoin:miter;stroke-opacity:1" />
    <path
       id="path1427"
       d="M 3.7041664,15.610417 V 26.19375"
       style="fill:none;stroke:#000000;stroke-width:0.264583px;stroke-linecap:butt;stroke-linejoin:miter;stroke-opacity:1" />
    <path
       sodipodi:nodetypes="scsscss"
       id="path1435"
       d="M 16.3004,15.619064 V 6.3586475 c 0,0 -1e-6,1.3229167 0,0 0,-0.5291667 1.322917,-0.5291667 1.322917,0 v 9.2604165 c 0,0 0,-1.322917 0,0 0,0.529167 -1.322917,0.529167 -1.322917,0 z"
       style="fill:none;stroke:#000000;stroke-width:0.264583px;stroke-linecap:butt;stroke-linejoin:miter;stroke-opacity:1" />
    <path
       sodipodi:nodetypes="cc"
       id="path1439"
       d="m 16.3004,6.3586475 c 0,0.5291667 1.322917,0.5291667 1.322917,0"
       style="fill:none;stroke:#000000;stroke-width:0.264583px;stroke-linecap:butt;stroke-linejoin:miter;stroke-opacity:1" />
    <path
       id="path1449"
       d="m 16.933333,2.910417 c 0,0 0.835565,0.9497174 0.835565,1.2662898 0,0.3165725 0.417781,1.2662895 -0.835565,1.2662895 -1.253349,0 -0.835566,-0.949717 -0.835566,-0.949717 0,0 0.417784,-1.2662898 0.835566,-1.5828623 z"
       style="fill:none;stroke:#000000;stroke-width:0.17859375;stroke-linecap:butt;stroke-linejoin:miter;stroke-opacity:1;stroke-miterlimit:4;stroke-dasharray:none" />
    <path
       id="path1499"
       d="m 16.933333,6.3500004 v -0.79375"
       style="fill:none;stroke:#000000;stroke-width:0.0866053;stroke-linecap:round;stroke-linejoin:miter;stroke-miterlimit:4;stroke-dasharray:none;stroke-opacity:1" />
    <path
       sodipodi:nodetypes="cc"
       id="path1503"
       d="m 17.4625,14.2875 c 0,0.529167 -1.058334,-0.79375 -1.058334,-1.322916"
       style="fill:none;stroke:#000000;stroke-width:0.264583px;stroke-linecap:butt;stroke-linejoin:miter;stroke-opacity:1" />
    <path
       style="fill:none;stroke:#000000;stroke-width:0.264583px;stroke-linecap:butt;stroke-linejoin:miter;stroke-opacity:1"
       d="m 17.4625,12.964584 c 0,0.529167 -1.058334,-0.793751 -1.058334,-1.322917"
       id="path1503-6"
       sodipodi:nodetypes="cc" />
    <path
       style="fill:none;stroke:#000000;stroke-width:0.264583px;stroke-linecap:butt;stroke-linejoin:miter;stroke-opacity:1"
       d="m 17.4625,15.610417 c 0,0.529167 -1.058334,-0.79375 -1.058334,-1.322916"
       id="path1503-9"
       sodipodi:nodetypes="cc" />
    <path
       style="fill:none;stroke:#000000;stroke-width:0.264583px;stroke-linecap:butt;stroke-linejoin:miter;stroke-opacity:1"
       d="m 17.4625,11.641666 c 0,0.529168 -1.058334,-0.793749 -1.058334,-1.322915"
       id="path1503-1"
       sodipodi:nodetypes="cc" />
    <path
       style="fill:none;stroke:#000000;stroke-width:0.264583px;stroke-linecap:butt;stroke-linejoin:miter;stroke-opacity:1"
       d="m 17.4625,10.31875 c 0,0.529167 -1.058334,-0.7937502 -1.058334,-1.3229162"
       id="path1503-0"
       sodipodi:nodetypes="cc" />
    <path
       style="fill:none;stroke:#000000;stroke-width:0.26458333;stroke-linecap:butt;stroke-linejoin:miter;stroke-opacity:1;stroke-miterlimit:4;stroke-dasharray:none"
       d="m 17.4625,8.9958338 c 0,0.5291668 -1.058334,-0.79375 -1.058334,-1.322916"
       id="path1503-3"
       sodipodi:nodetypes="cc" />
    <path
       style="fill:none;stroke:#000000;stroke-width:0.264583px;stroke-linecap:butt;stroke-linejoin:miter;stroke-opacity:1"
       d="m 17.4625,7.6729171 c 0,0.529167 -1.058334,-0.79375 -1.058334,-1.322916"
       id="path1503-7"
       sodipodi:nodetypes="cc" />
    <path
       sodipodi:nodetypes="ccccccccccccccccccccccccccccccccccccccccccccccccc"
       id="path1550"
       d="m 3.7041663,17.727084 0.79375,1.322917 0.5291667,3.96875 0.2645833,-3.439584 0.79375,-0.79375 0.79375,1.322917 0.2645834,3.704167 0.2645833,-3.704167 0.79375,-0.264583 0.5291667,2.116666 0.2645833,-2.116666 0.5291667,-0.264584 0.5291663,4.762501 0.264584,-4.233334 0.529166,-0.264583 0.529167,4.7625 0.529167,-3.704167 0.79375,-0.79375 0.79375,0.529167 0.79375,4.233333 0.529166,-3.96875 0.79375,-0.264583 0.529167,0.264583 0.264583,2.116667 0.529167,-1.852084 0.529167,4.233334 0.264583,-4.233334 0.529167,-0.529166 0.529166,2.910416 0.264584,-2.645833 0.529166,-0.529167 0.529167,0.529167 0.529167,0.79375 0.264583,3.175 0.264583,-3.96875 0.79375,-0.79375 1.058333,0.79375 0.529167,3.175 0.529167,-3.175 0.529166,-1.058333 0.793751,2.38125 0.793749,-2.38125 0.793751,4.233333 0.529166,-4.497917 0.529167,-0.79375 0.529167,4.497917 0.529166,-3.96875 0.529167,-1.058333 0.529167,0.264583"
       style="fill:none;stroke:#000000;stroke-width:0.264583px;stroke-linecap:butt;stroke-linejoin:miter;stroke-opacity:1" />
    <path
       transform="scale(0.26458333)"
       id="path1583"
       d="m 58.777482,109.63427 c -17.858008,-0.36644 -32.966967,-2.68107 -39.875165,-6.1087 -2.506805,-1.24379 -3.859682,-2.47042 -4.241704,-3.845858 -0.08734,-0.314474 -0.133347,-5.702707 -0.133018,-15.579959 l 5.04e-4,-15.099228 0.969636,1.634116 0.969636,1.634115 0.930247,7.059379 c 0.511636,3.882659 0.961841,7.221157 1.000457,7.418885 0.06324,0.323835 0.124574,0.359505 0.618113,0.359505 h 0.547902 l 0.490908,-6.438415 0.490908,-6.438415 1.157392,-1.159873 1.157393,-1.159873 1.308054,2.205707 1.308055,2.205707 0.41424,6.013545 c 0.227832,3.30745 0.448949,6.410635 0.49137,6.895968 l 0.07713,0.882422 h 0.569509 c 0.50343,0 0.569517,-0.03413 0.569573,-0.294141 3.5e-5,-0.161777 0.205905,-3.147306 0.457488,-6.634509 0.251583,-3.487202 0.457453,-6.430833 0.457488,-6.541401 4.4e-5,-0.135519 0.340321,-0.31258 1.044165,-0.543323 l 1.0441,-0.342291 0.12625,0.477959 c 0.06944,0.262877 0.489341,1.933955 0.933121,3.713507 l 0.806874,3.235549 h 0.543426 0.543426 l 0.43479,-3.562372 c 0.555687,-4.552925 0.47554,-4.203431 1.023906,-4.464928 0.253564,-0.120917 0.476997,-0.20262 0.496518,-0.181563 0.03705,0.03996 1.894057,16.649212 1.893434,16.93504 -2.62e-4,0.106573 0.204262,0.163412 0.587925,0.163412 0.388842,0 0.588281,-0.05636 0.588281,-0.166257 0,-0.09144 0.205899,-3.428659 0.457552,-7.41604 0.251654,-3.98738 0.457553,-7.441058 0.457553,-7.67484 0,-0.361987 0.07515,-0.463399 0.506472,-0.683442 l 0.506473,-0.258383 0.0631,0.484502 c 0.0347,0.266477 0.467693,4.146556 0.9622,8.622398 l 0.899105,8.137895 h 0.547243 c 0.492336,0 0.554488,-0.03607 0.61945,-0.359505 0.03971,-0.197728 0.488735,-3.300913 0.997826,-6.895967 l 0.925621,-6.536463 1.283272,-1.289446 1.283274,-1.289446 1.193611,0.802584 c 0.656487,0.44142 1.195905,0.815773 1.198706,0.831893 0.0028,0.01612 0.668737,3.559 1.479855,7.873065 l 1.474762,7.843755 0.542124,0.03999 c 0.475545,0.03508 0.550161,0.003 0.607562,-0.261458 0.03599,-0.165795 0.484987,-3.478167 0.997771,-7.360825 0.512784,-3.882659 0.941201,-7.065787 0.952038,-7.073619 0.01084,-0.0078 0.569946,-0.196892 1.242463,-0.420133 l 1.222757,-0.405894 0.737533,0.37294 0.737532,0.372939 0.47538,3.811944 c 0.261459,2.096569 0.497659,3.834224 0.524889,3.861453 0.02723,0.02723 0.277242,0.06852 0.555583,0.09176 l 0.506073,0.04225 0.614974,-2.151499 c 0.5225,-1.827976 0.625578,-2.083527 0.685502,-1.69948 0.03879,0.24861 0.415088,3.231649 0.836214,6.628975 l 0.765685,6.176957 h 0.53933 0.539331 l 0.07296,-0.751693 c 0.04013,-0.413431 0.267815,-3.957828 0.505968,-7.876437 l 0.433006,-7.124744 0.521548,-0.568373 c 0.509288,-0.555012 0.523809,-0.561158 0.6177,-0.261458 0.05288,0.168803 0.454986,2.307072 0.893563,4.751709 0.438576,2.444636 0.829431,4.553221 0.868566,4.685742 0.05909,0.200113 0.152088,0.225831 0.548717,0.151752 0.262658,-0.04906 0.504268,-0.115558 0.53691,-0.147779 0.03264,-0.03222 0.277927,-2.241094 0.545078,-4.908606 l 0.48573,-4.850022 0.692853,-0.701567 0.692853,-0.701568 0.833705,0.817533 c 0.458538,0.449643 1.247393,1.429863 1.753011,2.178267 l 0.919305,1.360735 0.497749,5.940892 c 0.273762,3.267491 0.516198,5.95479 0.538747,5.971777 0.02255,0.01699 0.277804,0.006 0.567232,-0.0244 l 0.526232,-0.05529 0.486576,-7.34145 0.486577,-7.341449 1.274954,-1.27141 1.274952,-1.27141 1.69948,1.281001 1.699481,1.281001 0.977645,5.904767 0.977647,5.904767 h 0.558422 c 0.307132,0 0.558423,-0.0318 0.558423,-0.07066 0,-0.03886 0.442067,-2.718288 0.982371,-5.954283 l 0.982373,-5.883625 0.685779,-1.367016 0.68578,-1.367016 1.422368,4.281844 c 0.782302,2.355014 1.479933,4.428914 1.550292,4.608667 0.110156,0.281429 0.323384,-0.254228 1.535153,-3.856512 0.773976,-2.300835 1.439179,-4.095094 1.478228,-3.987242 0.03905,0.107851 0.605143,3.078673 1.257986,6.601826 0.65285,3.523153 1.21797,6.541384 1.25584,6.707179 0.0604,0.264462 0.13597,0.29654 0.61602,0.261459 l 0.54719,-0.03999 0.99152,-8.432036 0.99152,-8.432036 0.51432,-0.770571 0.51431,-0.770571 0.0957,0.443748 c 0.0526,0.244061 0.45211,3.355742 0.88776,6.914845 0.43566,3.559104 0.82179,6.606749 0.85809,6.772544 0.058,0.264883 0.13244,0.296596 0.61393,0.261458 l 0.54794,-0.03999 0.99308,-6.92865 0.99308,-6.92865 0.82267,-1.634116 c 0.45247,-0.898763 0.84667,-1.659917 0.87601,-1.691454 0.0293,-0.03154 0.31678,0.07065 0.63876,0.227077 l 0.58541,0.284416 V 84.72796 c 0,15.87997 0.0399,15.109397 -0.84309,16.26587 -1.39204,1.8231 -5.31496,3.66782 -10.72658,5.04408 -10.143822,2.57974 -26.447645,3.93889 -43.140517,3.59635 z"
       style="opacity:0.993;fill:#fff8e6;fill-opacity:1;stroke:#000000;stroke-width:0.0653646;stroke-linecap:round;stroke-linejoin:round;stroke-miterlimit:4;stroke-dasharray:none;stroke-opacity:1" />
    <path
       transform="scale(0.26458333)"
       id="path1585"
       d="m 53.841339,89.917204 c -0.04632,-0.143802 -0.590032,-2.965564 -1.208248,-6.270584 -0.618216,-3.305018 -1.135822,-6.017373 -1.150238,-6.027456 -1.008922,-0.705701 -3.333388,-2.198833 -3.481495,-2.236356 -0.128342,-0.03252 -0.826694,0.573867 -1.865534,1.619855 l -1.660402,1.671826 -0.692724,4.902347 c -0.380998,2.69629 -0.713502,4.755276 -0.738897,4.575523 -0.02539,-0.179752 -0.38548,-3.373395 -0.800191,-7.096983 -0.41471,-3.723587 -0.78482,-6.800961 -0.822466,-6.838607 -0.03765,-0.03765 -0.712948,0.254781 -1.50067,0.649838 l -1.432221,0.718286 -0.07788,0.891151 c -0.04283,0.490134 -0.181117,2.639281 -0.307295,4.775883 -0.12618,2.136602 -0.246872,3.867276 -0.268207,3.845942 -0.03481,-0.03481 -1.346727,-11.596946 -1.346727,-11.868952 0,-0.08424 -2.776742,1.211464 -2.977221,1.389255 -0.0197,0.01747 -0.175649,1.132457 -0.346562,2.477754 -0.170911,1.345296 -0.333478,2.468722 -0.36126,2.496503 -0.02778,0.02778 -0.335352,-1.108641 -0.683493,-2.525383 -0.348141,-1.416741 -0.67209,-2.619666 -0.719889,-2.673166 -0.08523,-0.09539 -3.634104,1.019275 -3.841338,1.206529 -0.05805,0.05245 -0.212324,1.500928 -0.342838,3.218838 -0.130515,1.71791 -0.245226,2.917575 -0.254914,2.665921 -0.0097,-0.251654 -0.106497,-1.634116 -0.215131,-3.072137 l -0.197517,-2.614585 -1.713079,-2.859501 -1.713079,-2.8595 -1.838033,1.838033 -1.838034,1.838033 -0.270347,3.527746 c -0.148691,1.94026 -0.302054,3.559166 -0.340807,3.597569 -0.03875,0.0384 -0.344882,-1.995442 -0.680288,-4.519657 l -0.609828,-4.589483 -1.509427,-2.519004 -1.509427,-2.519004 v -2.450736 -2.450737 l 0.490234,0.493553 c 3.731771,3.757031 15.299811,6.640203 31.473065,7.844222 6.276116,0.467226 8.348507,0.529917 17.517719,0.529917 9.187263,0 11.324329,-0.06499 17.517718,-0.532735 16.08308,-1.214646 27.366512,-3.981855 31.263172,-7.667148 l 0.70013,-0.662159 v 3.612797 3.612797 l -0.84554,-0.416955 c -0.46505,-0.229325 -0.87023,-0.390554 -0.9004,-0.358285 -0.0302,0.03227 -0.55881,1.067408 -1.17476,2.30031 l -1.1199,2.241641 -0.68902,4.842845 c -0.37895,2.663565 -0.70329,4.828559 -0.72076,4.811098 -0.0175,-0.01746 -0.39219,-2.911341 -0.83273,-6.430841 -0.44055,-3.519499 -0.82804,-6.426801 -0.8611,-6.460669 -0.0331,-0.03387 -0.10104,0.0027 -0.15105,0.08126 -0.05,0.07856 -0.69063,1.047525 -1.42359,2.153247 l -1.33264,2.010403 -0.75808,6.498189 c -0.41694,3.574004 -0.79508,6.456584 -0.8403,6.405733 -0.0452,-0.05085 -0.65309,-3.151065 -1.35081,-6.889367 -0.697718,-3.738301 -1.292159,-6.820492 -1.320981,-6.849314 -0.06845,-0.06845 0.02853,-0.344378 -1.671853,4.756636 l -1.481637,4.444795 -1.425116,-4.281383 c -0.783815,-2.35476 -1.455911,-4.281383 -1.493546,-4.281383 -0.03764,0 -0.647926,1.160807 -1.356201,2.579572 l -1.287773,2.57957 -0.702232,4.185668 c -0.386228,2.302116 -0.709476,4.244495 -0.718327,4.316396 -0.0089,0.0719 -0.349535,-1.837565 -0.757073,-4.243261 L 87.531274,78.68537 85.319975,77.013131 c -1.216216,-0.91973 -2.274477,-1.672237 -2.351692,-1.672237 -0.07722,0 -0.899841,0.761138 -1.828057,1.691418 l -1.687663,1.691419 -0.236153,3.505068 c -0.129884,1.927788 -0.253819,3.593312 -0.275409,3.701163 -0.02159,0.107852 -0.114354,-0.774571 -0.206139,-1.960938 L 78.567979,81.811991 77.532663,80.24324 c -0.695082,-1.053215 -1.444464,-1.976056 -2.280335,-2.808161 l -1.245019,-1.239411 -1.282596,1.277783 -1.282596,1.277784 -0.235978,2.510847 c -0.373749,3.97673 -0.311877,4.000416 -1.109591,-0.424779 -0.389412,-2.160212 -0.743385,-3.927659 -0.786604,-3.927659 -0.04322,0 -0.705915,0.632403 -1.472655,1.40534 l -1.394073,1.405339 -0.299923,4.960734 c -0.191982,3.175385 -0.334877,4.798574 -0.397045,4.510159 -0.05342,-0.247817 -0.339923,-2.421318 -0.636679,-4.830005 -0.296757,-2.408686 -0.558506,-4.399083 -0.581664,-4.423103 -0.02316,-0.02402 -0.27043,-0.0743 -0.549491,-0.111728 l -0.507382,-0.06806 -0.581931,2.039409 c -0.32006,1.121674 -0.614933,2.039667 -0.655271,2.039984 -0.04034,2.61e-4 -0.212362,-1.168669 -0.382277,-2.597745 l -0.308936,-2.59832 -1.264357,-0.622094 -1.264357,-0.622092 -1.686961,0.556762 c -0.927829,0.306217 -1.725905,0.593547 -1.773502,0.63851 -0.0476,0.04496 -0.416676,2.581947 -0.820174,5.637743 -0.857478,6.493903 -0.783616,6.022973 -0.891927,5.686722 z"
       style="opacity:0.993;fill:#674400;fill-opacity:0.98823529;stroke:#000000;stroke-width:0.0653646;stroke-linecap:round;stroke-linejoin:round;stroke-miterlimit:4;stroke-dasharray:none;stroke-opacity:1" />
    <path
       transform="scale(0.26458333)"
       id="path1587"
       d="m 58.646753,69.641672 c -18.32638,-0.49559 -32.386852,-2.618046 -39.392818,-5.946424 -3.230423,-1.534703 -4.648693,-2.967256 -4.648693,-4.69551 0,-2.634695 3.845808,-5.037296 11.097742,-6.933121 7.373804,-1.927684 18.808462,-3.298313 29.936996,-3.588434 1.509923,-0.03936 3.348303,-0.101928 4.085289,-0.139032 l 1.339975,-0.06746 v 5.680817 5.680818 l 0.343267,0.40795 c 0.622061,0.739277 1.263497,0.975063 2.666572,0.980205 1.07756,0.0039 1.330672,-0.0395 1.88207,-0.32307 1.249806,-0.642746 1.181856,-0.269468 1.223635,-6.722015 l 0.03663,-5.658112 1.924305,0.04921 c 18.61003,0.475894 32.638787,2.590298 39.705057,5.984317 2.7073,1.300347 4.02621,2.469692 4.457,3.951553 0.18277,0.628708 0.18277,0.764047 0,1.392754 -0.42324,1.455907 -1.74421,2.644212 -4.32627,3.891799 -6.35295,3.069588 -18.262228,5.105468 -34.316429,5.866363 -2.937609,0.13923 -13.308001,0.26058 -16.014332,0.187395 z"
       style="opacity:0.993;fill:#674401;fill-opacity:0.99215686;stroke:#000000;stroke-width:0.0653646;stroke-linecap:round;stroke-linejoin:round;stroke-miterlimit:4;stroke-dasharray:none;stroke-opacity:1" />
    <ellipse
       ry="0.39687499"
       rx="0.66145831"
       cy="15.073395"
       cx="7.6686449"
       id="path1591"
       style="opacity:0.993;fill:#ef0000;fill-opacity:1;stroke:#000000;stroke-width:0.132292;stroke-linecap:round;stroke-linejoin:round;stroke-miterlimit:4;stroke-dasharray:none;stroke-opacity:1" />
    <ellipse
       style="opacity:0.993;fill:#0bef00;fill-opacity:1;stroke:#000000;stroke-width:0.132292;stroke-linecap:round;stroke-linejoin:round;stroke-miterlimit:4;stroke-dasharray:none;stroke-opacity:1"
       id="path1591-4"
       cx="26.302624"
       cy="15.791215"
       rx="0.66145831"
       ry="0.39687499" />
    <ellipse
       style="opacity:0.993;fill:#000bef;fill-opacity:1;stroke:#000000;stroke-width:0.132292;stroke-linecap:round;stroke-linejoin:round;stroke-miterlimit:4;stroke-dasharray:none;stroke-opacity:1"
       id="path1591-7"
       cx="19.660742"
       cy="14.191589"
       rx="0.66145831"
       ry="0.39687499" />
    <ellipse
       style="opacity:0.993;fill:#dbef00;fill-opacity:1;stroke:#000000;stroke-width:0.132292;stroke-linecap:round;stroke-linejoin:round;stroke-miterlimit:4;stroke-dasharray:none;stroke-opacity:1"
       id="path1591-49"
       cx="12.354383"
       cy="14.373492"
       rx="0.66145831"
       ry="0.39687499" />
    <ellipse
       style="opacity:0.993;fill:#ef6900;fill-opacity:1;stroke:#000000;stroke-width:0.132292;stroke-linecap:round;stroke-linejoin:round;stroke-miterlimit:4;stroke-dasharray:none;stroke-opacity:1"
       id="path1591-79"
       cx="14.515973"
       cy="17.200815"
       rx="0.66145831"
       ry="0.39687499" />
    <ellipse
       style="opacity:0.993;fill:#ff09e8;fill-opacity:1;stroke:#000000;stroke-width:0.132292;stroke-linecap:round;stroke-linejoin:round;stroke-miterlimit:4;stroke-dasharray:none;stroke-opacity:1"
       id="path1591-3"
       cx="23.474468"
       cy="14.727508"
       rx="0.66145831"
       ry="0.39687499" />
    <ellipse
       style="opacity:0.993;fill:#00caef;fill-opacity:1;stroke:#000000;stroke-width:0.132292;stroke-linecap:round;stroke-linejoin:round;stroke-miterlimit:4;stroke-dasharray:none;stroke-opacity:1"
       id="path1591-75"
       cx="10.287184"
       cy="16.742197"
       rx="0.66145831"
       ry="0.39687499" />
    <ellipse
       style="opacity:0.993;fill:#ef0000;fill-opacity:1;stroke:#000000;stroke-width:0.132292;stroke-linecap:round;stroke-linejoin:round;stroke-miterlimit:4;stroke-dasharray:none;stroke-opacity:1"
       id="path1591-9"
       cx="21.078463"
       cy="17.157265"
       rx="0.66145831"
       ry="0.39687499" />
    <path
       transform="scale(0.26458333)"
       id="path1644"
       d="m 65.041284,58.291572 c -1.07918,-1.093107 -2.145893,-2.813268 -2.39507,-3.862244 -0.09106,-0.383355 -0.143701,-0.459304 -0.318327,-0.459304 -0.208153,0 -0.209223,-0.0072 -0.209223,-1.403867 v -1.403866 l 0.383714,0.64124 c 0.49804,0.832294 1.421068,2.018048 1.950205,2.5053 0.529818,0.48788 0.897997,0.678028 1.312852,0.678028 h 0.328129 v 1.98745 c 0,1.961223 -0.0026,1.98745 -0.195316,1.98745 -0.119993,0 -0.450476,-0.258454 -0.856964,-0.670187 z"
       style="opacity:0.993;fill:#ff0000;fill-opacity:1;stroke:#000000;stroke-width:0.0462198;stroke-linecap:round;stroke-linejoin:round;stroke-miterlimit:4;stroke-dasharray:none;stroke-opacity:1" />
    <path
       transform="scale(0.26458333)"
       id="path1648"
       d="m 65.580826,48.805849 c -0.924198,-0.563591 -2.790253,-3.376085 -2.967547,-4.472647 -0.04647,-0.2874 -0.09353,-0.346648 -0.275331,-0.346648 h -0.219284 v -1.403007 -1.403006 l 0.531527,0.854553 c 0.623106,1.001788 1.659029,2.227548 2.224512,2.632163 0.299544,0.21433 0.500829,0.285937 0.808551,0.287642 l 0.409721,0.0023 2.96e-4,2.01056 c 3.23e-4,2.184541 0.0084,2.155713 -0.512444,1.83812 z"
       style="opacity:0.993;fill:#ff0000;fill-opacity:1;stroke:#000000;stroke-width:0.0462198;stroke-linecap:round;stroke-linejoin:round;stroke-miterlimit:4;stroke-dasharray:none;stroke-opacity:1" />
    <path
       transform="scale(0.26458333)"
       id="path1650"
       d="M 65.3744,38.659515 C 64.319809,37.775363 62.739587,35.27552 62.60608,34.280154 62.56409,33.967067 62.52309,33.910645 62.337591,33.910645 h -0.218927 v -1.359619 -1.359618 l 0.456177,0.735651 c 0.675034,1.088591 1.589204,2.193965 2.188943,2.646773 0.434906,0.328356 0.601171,0.399868 0.929701,0.399868 h 0.400079 v 2.010559 c 0,2.292422 0.0045,2.281957 -0.719164,1.675256 z"
       style="opacity:0.993;fill:#ff0000;fill-opacity:1;stroke:#000000;stroke-width:0.0462198;stroke-linecap:round;stroke-linejoin:round;stroke-miterlimit:4;stroke-dasharray:none;stroke-opacity:1" />
    <path
       transform="scale(0.26458333)"
       id="path1654"
       d="m 63.274158,59.892156 c -0.41724,-0.101576 -0.849509,-0.349801 -1.011223,-0.58068 -0.116152,-0.165829 -0.144271,-0.494455 -0.144271,-1.686082 v -1.480107 l 0.360976,0.617721 c 0.72295,1.237153 2.245073,3.008741 2.613336,3.041643 0.06733,0.006 -0.0024,0.04269 -0.154906,0.0815 -0.354429,0.09019 -1.304041,0.09361 -1.663912,0.006 z"
       style="opacity:0.993;fill:#e3dbdb;fill-opacity:1;stroke:#000000;stroke-width:0.0462198;stroke-linecap:round;stroke-linejoin:round;stroke-miterlimit:4;stroke-dasharray:none;stroke-opacity:1" />
    <path
       transform="scale(0.26458333)"
       id="path1656"
       d="m 65.083628,53.346057 c -0.341579,-0.343182 -0.841208,-0.93595 -1.110286,-1.317263 -0.583321,-0.826632 -1.282577,-2.215438 -1.360354,-2.70183 -0.04631,-0.289615 -0.0929,-0.348675 -0.27504,-0.348675 h -0.219284 v -1.404265 -1.404265 l 0.3242,0.538387 c 1.238222,2.056272 2.564282,3.358495 3.329053,3.269213 l 0.321647,-0.03755 v 2.015108 c 0,1.986516 -0.0028,2.015108 -0.194442,2.015108 -0.117087,0 -0.441516,-0.248234 -0.815494,-0.623968 z"
       style="opacity:0.993;fill:#e3dbdb;fill-opacity:1;stroke:#000000;stroke-width:0.0462198;stroke-linecap:round;stroke-linejoin:round;stroke-miterlimit:4;stroke-dasharray:none;stroke-opacity:1" />
    <path
       transform="scale(0.26458333)"
       id="path1658"
       d="m 65.332635,43.610458 c -0.980631,-0.840533 -2.569668,-3.329047 -2.717971,-4.256481 -0.048,-0.300175 -0.09344,-0.359158 -0.276716,-0.359158 h -0.219284 v -1.403006 -1.403007 l 0.531527,0.854553 c 0.623106,1.001788 1.659029,2.227548 2.224512,2.632163 0.299544,0.21433 0.500829,0.285937 0.808551,0.287642 l 0.409721,0.0023 2.96e-4,2.01056 c 3.42e-4,2.309325 0.0079,2.293166 -0.760634,1.634464 z"
       style="opacity:0.993;fill:#e3dbdb;fill-opacity:1;stroke:#000000;stroke-width:0.0462198;stroke-linecap:round;stroke-linejoin:round;stroke-miterlimit:4;stroke-dasharray:none;stroke-opacity:1" />
    <path
       transform="scale(0.26458333)"
       id="path1660"
       d="m 65.047023,33.323098 c -1.07402,-1.089999 -2.322534,-3.151878 -2.440332,-4.030125 -0.04261,-0.317705 -0.08316,-0.374063 -0.2691,-0.374063 h -0.218927 l 0.0031,-1.363483 0.0031,-1.363483 0.297311,0.499134 c 1.194753,2.005785 2.682197,3.44712 3.407661,3.302028 l 0.263693,-0.05274 v 1.985139 1.985139 H 65.85976 c -0.164866,0 -0.404504,-0.17324 -0.812737,-0.587546 z"
       style="opacity:0.993;fill:#e3dbdb;fill-opacity:1;stroke:#000000;stroke-width:0.0462198;stroke-linecap:round;stroke-linejoin:round;stroke-miterlimit:4;stroke-dasharray:none;stroke-opacity:1" />
    <path
       transform="scale(0.26458333)"
       id="path1662"
       d="m 65.56648,28.828195 c -0.277553,-0.177887 -0.965699,-0.902436 -1.367438,-1.439776 -0.310316,-0.415058 -0.830936,-1.194281 -0.87539,-1.310216 -0.0149,-0.03885 0.195426,-0.05427 0.777361,-0.05698 0.703431,-0.0033 0.846985,-0.01744 1.213764,-0.119702 0.228788,-0.06379 0.493974,-0.150792 0.589302,-0.193336 l 0.173324,-0.07735 v 1.664531 1.664532 h -0.15272 c -0.089,0 -0.238449,-0.05494 -0.358203,-0.131696 z"
       style="opacity:0.993;fill:#ff0000;fill-opacity:1;stroke:#000000;stroke-width:0.0231099;stroke-linecap:round;stroke-linejoin:round;stroke-miterlimit:4;stroke-dasharray:none;stroke-opacity:1" />
    <path
       transform="scale(0.26458333)"
       id="path1664"
       d="m 63.681021,24.98121 c -0.186782,-0.01856 -0.484882,-0.08046 -0.662446,-0.137554 -0.3586,-0.115306 -0.37736,-0.139843 -0.466177,-0.609736 l -0.05023,-0.265763 h -0.176721 c -0.21033,0 -0.221395,-0.05146 -0.06162,-0.28658 0.17668,-0.260008 0.946607,-0.591596 1.373647,-0.591596 h 0.128949 v 0.501254 c 0,0.426908 0.01254,0.512599 0.08452,0.577747 0.106152,0.09607 0.211505,0.0974 0.305043,0.0039 0.0576,-0.0576 0.07263,-0.182535 0.07263,-0.603689 v -0.531058 l 0.219544,0.0288 c 1.122081,0.147214 1.744542,0.57425 1.611237,1.105378 -0.136008,0.5419 -1.250611,0.920998 -2.378373,0.808931 z"
       style="opacity:0.993;fill:#ff0000;fill-opacity:1;stroke:#000000;stroke-width:0.0231099;stroke-linecap:round;stroke-linejoin:round;stroke-miterlimit:4;stroke-dasharray:none;stroke-opacity:1" />
    <path
       transform="scale(0.26458333)"
       id="path1825"
       d="m 62.343807,19.934287 c -1.114825,-0.396192 -1.541504,-1.130416 -1.290685,-2.220993 0.322276,-1.401271 1.924661,-4.945864 2.602693,-5.757347 l 0.318649,-0.381366 0.748771,0.951178 c 0.930777,1.182383 1.669674,2.274458 1.862064,2.752093 0.216506,0.537504 0.445479,2.367729 0.380641,3.04252 -0.0679,0.706627 -0.336799,1.100579 -1.010003,1.479697 -0.436547,0.245845 -0.667779,0.287406 -1.756323,0.315679 -0.997494,0.02591 -1.376614,-0.01116 -1.855807,-0.181461 z"
       style="opacity:0.993;fill:url(#radialGradient1833);fill-opacity:1;stroke:#000000;stroke-width:0.0769247;stroke-linecap:round;stroke-linejoin:round;stroke-miterlimit:4;stroke-dasharray:none;stroke-opacity:1" />
    <path
       style="fill:none;stroke:#000000;stroke-width:0.324944px;stroke-linecap:butt;stroke-linejoin:miter;stroke-opacity:1"
       d="m 2.378232,26.196392 c 0,5.440834 29.110201,5.440834 29.110201,0"
       id="path1406-8"
       sodipodi:nodetypes="cc" />
    <path
       transform="scale(0.26458333)"
       id="path2436"
       d="M 58.613318,113.64564 C 52.066677,113.51002 43.013897,112.77856 37.022386,111.9011 24.668055,110.09181 15.97355,107.16856 12.162577,103.5428 10.541653,102.00066 9.9221403,100.90984 9.7805783,99.34867 9.6272603,97.657852 10.310834,96.252829 12.087568,94.606866 l 1.300618,-1.20489 0.104688,3.545201 c 0.09579,3.244023 0.14597,3.611593 0.590631,4.326753 2.331996,3.7506 11.607261,6.72752 25.895384,8.31118 22.872085,2.53508 51.398511,1.11026 65.268041,-3.25997 3.64942,-1.14992 6.04892,-2.38478 7.6035,-3.91301 1.62673,-1.59916 1.76816,-2.06633 1.7697,-5.845545 6.2e-4,-1.583403 0.085,-2.878914 0.1875,-2.878914 0.10249,0 0.7007,0.506205 1.32936,1.124901 2.85952,2.814199 2.82304,5.721548 -0.1077,8.582098 -4.91262,4.795 -18.318456,8.36539 -36.669236,9.76616 -3.576816,0.27303 -13.784084,0.63382 -16.349848,0.57792 -1.036409,-0.0226 -3.015009,-0.0645 -4.396888,-0.0931 z"
       style="opacity:0.993;fill:#ffffff;fill-opacity:1;stroke:#000000;stroke-width:0.141329;stroke-linecap:round;stroke-linejoin:round;stroke-miterlimit:4;stroke-dasharray:none;stroke-opacity:1" />
  </g>
</svg>
